<svg xmlns="http://www.w3.org/2000/svg" viewBox="0 0 203.26 44.73">
  <g>
    <path style="fill:white;"
          d="M71.71,12.75a19.85,19.85,0,0,1-1.21,2.83,14.73,14.73,0,0,1-1.91,2.56,1.71,1.71,0,0,1-1.92.35c-1.07-.37-2.18-.66-3.27-1a3.28,3.28,0,0,0-3.47,1.1A51.17,51.17,0,0,1,45.09,29.17a74.19,74.19,0,0,1-18.31,6,43.85,43.85,0,0,1-11.36.92C11.78,35.83,8.16,35.38,5,33.3A9.85,9.85,0,0,1,.93,28.47a14.21,14.21,0,0,1-.77-7.13C.69,17.85,1.59,14.42,2.39,11c.27-1.18.7-2.34,1.13-3.73.82.92.34,1.62.25,2.26-.38,2.9-1,5.78-1.19,8.68-.22,3.71,1.66,6.36,4.87,8.16a19.17,19.17,0,0,0,7.81,2.27,56,56,0,0,0,9.15.19,72.73,72.73,0,0,0,16.43-3.21,60.59,60.59,0,0,0,15.6-7.26c1.49-1,2.92-2.11,4.4-3.13a5.57,5.57,0,0,1,5.59-.9c2.12.92,3.64.31,4.81-1.55,0-.05.11-.06.17-.09Z"/>
    <path style="fill:white;"
          d="M156.55,6.38a4,4,0,0,1,0,1c-.87,3.19-1.42,6.49-3,9.44a28.16,28.16,0,0,1-8,8.78,56.9,56.9,0,0,1-18,8.65,53.92,53.92,0,0,1-15.49,2.67c-1.8,0-3.6.21-5.4.16A21.69,21.69,0,0,1,98,35.46c-4.2-2-6.73-4.27-6.89-9.91C91,20.5,92.24,15.7,93.56,10.9c.23-.82.55-1.62.82-2.43h.34a3.35,3.35,0,0,1,.13.92c-.46,2.78-1.12,5.54-1.4,8.34C92.87,23.51,96,27,101.21,28.51a43.91,43.91,0,0,0,14.43,1.29,70.3,70.3,0,0,0,22.71-4.95,46.45,46.45,0,0,0,11.85-6.42A4.1,4.1,0,0,0,151.81,16a30.52,30.52,0,0,1,3.65-8.79,8.25,8.25,0,0,1,.75-.93Z"/>
    <path style="fill:white;"
          d="M90.79,9.57c0,1.11.07,2.17,0,3.22-.2,2.51-.41,5-.75,7.52a20.28,20.28,0,0,1-7.31,13.3,12.89,12.89,0,0,1-8.84,3.26,7,7,0,0,1-6.61-6.59c-.15-3.93,1.48-7.26,3.31-10.54.63-1.12,1.4-2.15,2.12-3.21.27-.39.56-.75.84-1.13l.36.29-.54,1a34.26,34.26,0,0,0-2.92,5.59c-1.09,3.51.1,6.5,4,7.54s7.58,0,10.89-2.41c2-1.42,2.47-3.31,2.53-5.57.1-3.83.18-7.7,1.87-11.28C89.9,10.11,90,9.39,90.79,9.57Z"/>
    <path style="fill:white;"
          d="M202.53,11.32s0,.94,0,1.4c-.32,4.92-1.35,9.66-4.84,13.34A76.37,76.37,0,0,0,193,32.33a33.73,33.73,0,0,1-4,4.06,4,4,0,0,1-3.29,1,1.65,1.65,0,0,1-1.14-.71,1.42,1.42,0,0,1,.31-1.2,6,6,0,0,1,1.45-1.14c1.51-.91,3.1-1.7,4.56-2.69a20.42,20.42,0,0,0,2.46-2.29l-.11-.35-1.92-.37c-2.16-.42-2.81-1.6-1.85-3.6a41.17,41.17,0,0,1,2.5-4.43c1.09-1.7,2.81-1.61,3.9.13a5.67,5.67,0,0,1,.42,4.11,7,7,0,0,0,2.5-3.19,8.71,8.71,0,0,0,.4-2.55c.1-2.65,1.27-4.91,2.45-7.19.13-.27.33-.62.64-.68C202.36,11.19,202.53,11.32,202.53,11.32Z"/>
    <path style="fill:white;"
          d="M161.61,25.89A3.71,3.71,0,0,1,160,29.65a1.7,1.7,0,0,1-2.72-.57c-.81-1.35-1.66-1.49-2.71-.35-1.41,1.53-2.66,3.19-4.11,4.67a23.37,23.37,0,0,1-3.7,3.11,4.94,4.94,0,0,1-2.47.56,1.69,1.69,0,0,1-1.46-2.65,3.83,3.83,0,0,1,1.5-1.35,25.41,25.41,0,0,0,8-5.32c1.3-1.39,2.54-2.84,4-4.1s2.71-1.2,4.07.34A5.61,5.61,0,0,1,161.61,25.89Z"/>
    <path style="fill:white;"
          d="M177.54,25.34A14.14,14.14,0,0,1,174,33.1a12.4,12.4,0,0,1-2.59,2.15,3.27,3.27,0,0,1-1.9.27,1.24,1.24,0,0,1-1.11-1.29A8,8,0,0,1,169.51,30c.54-1.08,1.23-2.08,1.79-3.15.22-.41.21-.94.4-1.36.79-1.76,1.61-3.51,2.43-5.26.25-.51.63-.57,1.1-.25C176.83,21,177.63,22.5,177.54,25.34Zm-5.42,6.25A4.94,4.94,0,0,0,174,30.42a1.67,1.67,0,0,0,.21-1.59,9.36,9.36,0,0,0-1.78-1.95.67.67,0,0,0-.64.11,18.49,18.49,0,0,0-1.4,3.2C170.1,31.15,170.67,32,172.12,31.59Z"/>
    <path style="fill:white;"
          d="M170.49,6.69c-.24,2.46-.45,4.92-.71,7.38-.24,2.29-.49,4.58-.81,6.86a23.86,23.86,0,0,1-3.82,9.56,14,14,0,0,1-4,4.56,4.24,4.24,0,0,1-4.61.19c-.31-.18-.77-.57-.69-1s.59-.44.92-.56a36.72,36.72,0,0,0,4.84-1.79,9.12,9.12,0,0,0,4.19-4.85,22,22,0,0,0,1.31-7.1C167.24,15.31,168,10.78,170.49,6.69Z"/>
    <path style="fill:white;"
          d="M50.93,35.94l2.26-3.45c1.35-2,2.22-2.14,4.11-.52.15.14.31.26.52.42.73-.92,1.4-1.84,2.17-2.66a1.29,1.29,0,0,1,1.12-.26c1.83.66,2.21,1.92,1.14,3.54-.25.37-.5.75-.77,1.1-1.34,1.66-1.71,1.76-3.54.79-.71-.38-1.25-.55-1.66.35a5,5,0,0,1-.7.9c-.81,1-1.38,1.15-2.59.59C52.37,36.45,51.71,36.24,50.93,35.94Z"/>
    <path style="fill:white;"
          d="M128.23,43.53c1.09-1.61,2.11-3.21,3.25-4.71a1.55,1.55,0,0,1,1.38-.2,17.76,17.76,0,0,1,2.36,1.27c.63-.79,1.29-1.71,2.06-2.51a1.39,1.39,0,0,1,1.22-.27c1.34.58,2.55,1.77,1.1,3.48-.29.34-.51.74-.79,1.09-1.31,1.7-1.7,1.81-3.6.79-.71-.37-1.19-.44-1.58.39a5.33,5.33,0,0,1-.71.89c-.89,1.14-1.34,1.22-2.64.59C129.7,44.06,129.07,43.86,128.23,43.53Z"/>
    <path style="fill:white;"
          d="M183.63,24.07a1.07,1.07,0,0,1,.05.79c-.77,3.64-2,7.07-4.7,9.77-1.22,1.21-2.43,2.37-4.43,2.37-1.11,0-2.22.7-3.34,1.07a4,4,0,0,1-1.42.25c5.42-4,11.31-7.41,13.51-14.4C183.41,24,183.56,24,183.63,24.07Z"/>
    <path style="fill:#f5a03c;"
          d="M196.47,5.58c1-1.78,2-3.52,3.05-5.23a1,1,0,0,1,.72-.35,2,2,0,0,1,.64.16c2.67.9,3,1.84,1.45,4.1-.51.74-1.13,1.4-1.69,2.1a1.22,1.22,0,0,1-1.58.32Z"/>
    <path style="fill:white;"
          d="M76.33,23.87c1-1.72,2-3.39,3-5a1.24,1.24,0,0,1,.57-.52c.66-.18,2.71.89,3.13,1.63s0,1.48-.44,2.09a25.15,25.15,0,0,1-2.14,2.66,1.64,1.64,0,0,1-1.37.34A22.94,22.94,0,0,1,76.33,23.87Z"/>
    <path style="fill:white;"
          d="M157.58,18.59c1-1.79,2-3.52,3.09-5.22a1,1,0,0,1,.84-.36,14.5,14.5,0,0,1,2.64,1.55,1.36,1.36,0,0,1,.12,1.29,36.84,36.84,0,0,1-2.7,3.64,1.4,1.4,0,0,1-1.21.24A28.74,28.74,0,0,1,157.58,18.59Z"/>
    <path style="fill:white;"
          d="M121.57,16.56c.66-.84,1.26-1.68,2-2.43a1.26,1.26,0,0,1,1-.37A1.94,1.94,0,0,1,125.78,17a4.13,4.13,0,0,1-.41.59c-.64.59-1.22,1.47-2,1.62s-1.58-.47-2.38-.75c-2.36,2.69-2.36,2.69-5.41,1.38,1-1.39,1.85-2.81,2.9-4.1.68-.85,1.53-.2,2.26.11A4,4,0,0,1,121.57,16.56Z"/>
    <path style="fill:white;"
          d="M118.6,14c1-1.51,2-3,3-4.4.13-.18.61-.35.74-.25a14.25,14.25,0,0,1,1.93,1.53.83.83,0,0,1,0,.75,35.33,35.33,0,0,1-2.2,3,1.33,1.33,0,0,1-1.1.24A22.1,22.1,0,0,1,118.6,14Z"/>
    <path style="fill:white;"
          d="M70.31,2.85C71,2,71.57,1.17,72.26.41a1.28,1.28,0,0,1,1-.37,1.94,1.94,0,0,1,1.24,3.28,4.55,4.55,0,0,1-.42.6c-.63.58-1.22,1.47-1.95,1.62s-1.57-.47-2.37-.75c-2.37,2.69-2.37,2.69-5.41,1.37,1-1.38,1.85-2.8,2.89-4.1.68-.85,1.53-.2,2.26.12A3.65,3.65,0,0,1,70.31,2.85Z"/>
  </g>
</svg>
